<svg width="109" height="21" viewBox="0 0 109 21" fill="none" xmlns="http://www.w3.org/2000/svg">
<path d="M13.5773 4.14126V0H0V20.5594H4.70801V12.6H12.3927V8.45874H4.70801V4.14126H13.5773Z" fill="white"/>
<path d="M20.1825 0.0293702H15.2619V4.49371H20.1825V0.0293702ZM15.4441 20.5594H20.0307V6.99021H15.4441V20.5594Z" fill="white"/>
<path d="M32.1239 6.57902H32.0328C29.8154 6.57902 28.2056 7.51888 27.3855 9.75105H27.3247V6.99021H22.8294V20.5594H27.4159V15.5664C27.4159 12.1007 28.6612 11.014 31.729 11.014H32.1239V6.57902Z" fill="white"/>
<path d="M39.8928 6.57902C35.5797 6.57902 32.4815 9.25175 32.4815 13.8336C32.4815 18.151 35.61 21 40.3181 21C42.7176 21 44.6312 20.2951 46.1195 19.414L44.449 16.0657C43.5681 16.6238 42.0798 17.2993 40.3788 17.2993C38.4956 17.2993 37.0984 16.5357 36.7946 14.8322H46.8485V13.8336C46.8485 8.92867 44.1148 6.57902 39.8928 6.57902ZM39.7409 9.72168C41.2293 9.72168 42.3531 10.6322 42.4139 12.2182H36.825C37.0376 10.4559 38.1919 9.72168 39.7409 9.72168Z" fill="white"/>
<path d="M53.3712 0H48.7846V20.5594H53.3712V0Z" fill="white"/>
<path d="M60.9386 0.0293702H56.018V4.49371H60.9386V0.0293702ZM56.2002 20.5594H60.7868V6.99021H56.2002V20.5594Z" fill="white"/>
<path d="M72.7281 6.54965C70.7538 6.54965 69.1136 7.46014 68.1416 9.04615H68.0809V6.99021H63.5855V20.5594H68.172V13.7455C68.172 11.3371 69.3262 10.4559 70.8753 10.4559C72.5763 10.4559 73.4571 11.3664 73.4571 13.393V20.5594H78.0133V12.1594C78.0133 8.28252 75.8263 6.54965 72.7281 6.54965Z" fill="white"/>
<path d="M96.0093 20.5594L89.5396 13.158L95.0981 6.99021H89.4181L85.3176 12.3357V0H80.731V20.5594H85.3176V14.3329L90.0863 20.5594H96.0093Z" fill="white"/>
<path d="M102.804 21C106.54 21 109 19.6489 109 16.4182C109 14.1273 107.724 13.0406 105.598 12.2769L103.168 11.3958C102.47 11.1315 102.105 10.9552 102.105 10.5441C102.105 10.1916 102.318 9.95664 103.229 9.95664C104.353 9.95664 105.902 10.3678 107.39 10.9552L108.666 7.37203C106.874 6.81399 105.173 6.54965 103.593 6.54965C99.5536 6.54965 97.5793 8.16503 97.5793 10.9552C97.5793 12.9818 98.7031 14.3035 101.012 15.1552L103.472 16.0951C103.897 16.2713 104.444 16.3594 104.444 16.8881C104.444 17.3287 103.988 17.5049 103.168 17.5049C101.437 17.5049 99.7055 16.8 98.1868 15.9483L96.4554 19.5902C98.5816 20.6182 100.951 21 102.804 21Z" fill="white"/>
</svg>
