<svg width="490" height="451" viewBox="0 0 490 451" fill="none" xmlns="http://www.w3.org/2000/svg">
<path d="M456.716 275.521C456.582 275.819 456.418 276.086 456.24 276.384L456.195 276.473C454.736 278.586 452.92 280.564 450.777 282.275C446.475 285.711 440.833 288.344 433.896 289.847C429.505 290.799 424.593 291.349 419.219 291.394C385.221 291.736 341.994 272.933 311.657 246.527C304.304 240.116 297.709 233.273 292.202 226.132C291.859 225.701 291.517 225.269 291.175 224.793C288.198 220.836 285.667 216.969 283.598 213.22L284.804 212.654C285.801 212.223 286.917 211.792 288.034 211.316C288.331 211.226 288.629 211.107 288.897 210.929C293.065 209.292 296.385 205.469 298.632 199.534C299.109 198.239 299.54 196.826 299.927 195.324C299.972 195.235 299.972 195.145 300.017 195.071C300.314 193.687 300.612 192.274 300.88 190.727C301.222 188.451 301.475 186.041 301.654 183.408C301.996 177.339 301.743 170.629 300.925 163.578C300.061 155.619 298.513 147.185 296.355 138.497C295.06 133.246 293.556 127.875 291.874 122.49C284.908 100.429 274.696 77.9212 262.773 59.2963C260.183 55.2946 257.519 51.4715 254.809 47.8566C254.125 46.9045 253.425 46.0119 252.74 45.1491C247.783 38.8714 242.975 33.7986 238.406 29.8713C231.782 24.2332 225.664 21.0497 220.32 20.3208C218.519 20.1125 216.837 20.1423 215.244 20.4547H215.11C213.696 21.02 212.311 21.5704 210.942 22.0911C211.15 21.9572 211.374 21.8382 211.627 21.7043C211.805 21.615 212.014 21.5258 212.192 21.4514L211.627 21.6597C209.081 22.6861 206.595 23.7275 204.229 24.7539L202.814 25.349C202.814 25.349 202.77 25.3489 202.77 25.3936H202.636C197.902 27.506 191.71 30.5556 186.932 32.787C187.661 32.4449 188.48 32.2217 189.343 32.192C190.683 32.0581 192.186 32.2812 193.824 32.787C198.349 34.2003 203.946 38.1276 210.272 44.4945C214.753 48.9276 219.575 54.5657 224.741 61.3641C225.038 61.7509 225.306 62.1823 225.604 62.5691C228.879 66.9575 232.109 71.5989 235.295 76.4634C245.67 92.4701 255.435 110.753 263.443 128.768C265.899 134.361 268.221 139.955 270.335 145.459C273.952 154.831 276.959 163.876 279.207 172.295C281.052 179.302 282.437 185.848 283.122 191.739C283.419 194.193 283.598 196.425 283.687 198.537C283.777 201.512 283.643 204.13 283.3 206.362C282.571 211.345 280.755 214.499 278.046 215.823C278.046 215.868 278.001 215.868 277.956 215.868C277.822 215.957 277.703 216.046 277.569 216.076C280.07 220.807 283.256 225.835 287.215 231.041V231.056V231.086C287.691 231.726 288.212 232.38 288.674 232.975C317.12 269.452 370.246 302.834 408.636 308.085C412.551 308.65 416.168 308.858 419.487 308.769C425.427 308.635 430.339 307.564 434.254 305.63C436.71 304.425 438.779 302.878 440.416 301.034C440.759 300.647 441.101 300.215 441.399 299.784C441.443 299.739 441.488 299.65 441.533 299.606L442.872 297.672C442.872 297.672 442.962 297.582 443.006 297.538C443.215 297.285 443.393 296.943 443.572 296.675C443.617 296.63 443.661 296.63 443.661 296.586C444.778 294.994 445.983 293.194 447.189 291.379C448.603 289.192 450.077 286.857 451.446 284.536L452.652 282.691C452.831 282.349 453.039 282.052 453.218 281.739C453.426 281.397 453.605 281.1 453.813 280.787L455.361 278.035C455.838 277.262 456.269 276.488 456.701 275.759C457.177 274.986 457.609 274.212 458.041 273.438C458.175 273.23 458.249 272.962 458.383 272.754C458.249 272.933 458.175 273.052 458.085 273.23C457.922 273.513 457.758 273.795 457.594 274.093L458.621 272.278C458.621 272.278 458.636 272.233 458.651 272.219C458.234 272.962 457.817 273.691 457.415 274.42C457.207 274.777 457.014 275.134 456.805 275.476L456.716 275.521Z" fill="url(#paint0_linear_23_37081)"/>
<path d="M128.461 68.9063L128.506 68.8617H128.461V68.9063Z" fill="url(#paint1_linear_23_37081)"/>
<path d="M415.186 332.259C413.727 333.464 411.747 334.193 409.246 334.416C406.239 334.669 402.533 334.207 398.052 332.958C395.82 332.318 393.364 331.5 390.729 330.459C376.394 324.776 358.919 313.812 341.443 300.171C331.246 292.212 320.99 283.346 311.434 274.063C299.808 262.832 289.091 251.005 280.442 239.476C275.917 233.451 272.226 227.903 269.382 222.874C269.04 222.309 268.742 221.714 268.385 221.149C268.385 221.104 268.34 221.104 268.34 221.059C267.179 221.788 265.974 222.517 264.947 223.127L264.738 223.261C264.053 223.693 263.324 224.213 262.505 224.674C262.371 224.764 262.252 224.853 262.118 224.883C262.684 224.54 262.982 223.722 262.982 222.517C262.982 221.402 262.729 219.944 262.252 218.129C261.776 216.403 261.091 214.306 260.183 211.896C259.498 210.17 258.724 208.192 257.816 206.094C255.45 200.679 252.443 194.431 248.87 187.633C244.047 178.335 238.242 168.011 231.871 157.256C220.126 137.47 206.387 116.257 193.169 97.7214C189.939 93.199 186.753 88.8552 183.657 84.6899C180.293 80.2122 177.152 76.2105 174.279 72.6848C167.432 64.2947 161.969 58.4484 158.099 55.2202C156.714 54.1045 155.509 53.2863 154.526 52.8549C153.663 52.4235 152.978 52.2896 152.457 52.4235H152.368C152.159 52.5574 151.936 52.6764 151.772 52.8103C151.817 52.7657 151.862 52.7211 151.906 52.6764C151.609 52.8847 151.311 53.0632 150.998 53.2715C148.721 54.6847 146.428 56.1574 144.419 57.526C144.166 57.7343 143.853 57.9128 143.6 58.0913L143.303 58.2996C140.891 59.936 138.137 61.9145 135.383 63.893C135.339 63.893 135.339 63.9377 135.294 63.9377C135.041 64.1162 134.773 64.2798 134.565 64.4583C134.312 64.6666 134.044 64.8451 133.791 65.0236C132.838 65.6633 131.945 66.3178 131.037 66.9575C130.739 67.1658 130.471 67.3889 130.218 67.5526C130.04 67.7311 129.876 67.8055 129.697 67.9393C129.608 68.0286 129.519 68.1179 129.444 68.1476C129.399 68.1922 129.355 68.1922 129.31 68.2369C129.221 68.3261 129.132 68.3708 129.057 68.4154C128.923 68.5493 128.804 68.6236 128.67 68.7129L128.536 68.8468C128.625 68.936 129.176 69.665 130.263 71.0038C131.082 72.0749 132.198 73.503 133.582 75.303C137.453 80.3312 143.436 88.2899 151.445 98.8817C152.74 100.607 154.065 102.363 155.449 104.222C162.981 114.204 171.243 125.212 179.683 136.489C185.056 143.674 190.534 150.993 195.908 158.163C207.31 173.441 218.34 188.228 227.539 200.62C232.407 207.195 236.798 213.131 240.46 218.084C241.8 219.884 243.005 221.521 244.032 222.993C245.536 225.017 246.786 226.698 247.784 228.066C249.942 231.071 250.969 232.544 250.969 232.633C249.287 233.883 247.307 235.385 245.715 236.679C245.461 236.888 245.238 237.111 244.985 237.274C244.985 237.319 244.941 237.319 244.896 237.364C244.851 237.408 244.762 237.453 244.717 237.542L244.762 237.587C246.697 239.863 248.811 242.407 251.088 245.248C253.842 248.729 256.849 252.642 260.124 256.941C263.607 261.567 267.194 266.461 270.826 271.519C283.643 289.4 297.01 309.468 308.74 328.242C315.245 338.67 321.243 348.682 326.334 357.712C330.353 364.808 333.822 371.309 336.546 376.887C337.513 378.866 338.362 380.68 339.091 382.332C340.341 385.158 341.264 387.494 341.86 389.368C342.738 392.12 342.917 393.861 342.411 394.59C342.366 394.649 342.306 394.694 342.262 394.753C342.976 394.292 343.661 393.831 344.331 393.4L345.834 392.388L346.013 392.269C351.029 388.803 357.326 384.206 362.67 380.279C363.637 379.565 364.575 378.866 365.468 378.211C365.453 378.211 365.409 378.181 365.379 378.166C365.007 377.958 364.024 376.932 362.521 375.191C361.226 373.704 359.544 371.68 357.534 369.241C356.373 367.828 355.108 366.295 353.738 364.614C353.545 364.763 353.336 364.912 353.143 365.061C353.336 364.912 353.53 364.763 353.738 364.599C349.407 359.259 344.212 352.743 338.421 345.439C326.29 330.087 311.613 311.254 297.144 292.45C297.055 292.331 296.965 292.212 296.876 292.093C286.292 278.333 275.843 264.617 266.584 252.329C265.334 250.648 264.128 249.071 263.011 247.554C258.278 241.276 254.571 236.233 251.609 232.246C252.428 231.651 253.247 230.997 254.11 230.402L256.477 228.676L257.891 227.679C257.98 227.679 258.025 227.635 258.069 227.59L258.412 227.382C258.754 227.174 259.052 226.95 259.365 226.742C259.409 226.742 259.409 226.698 259.454 226.698C260.094 226.266 260.794 225.79 261.478 225.359C264.842 230.997 269.353 237.617 275.039 245.099C278.224 249.354 281.618 253.698 285.235 258.086C304.482 281.62 328.716 306.568 349.972 325.059C359.574 333.359 368.52 340.411 376.186 345.409C378.21 346.748 380.101 347.864 381.827 348.846C385.221 350.735 388.02 351.984 390.312 352.594C392.59 353.234 394.316 353.189 395.433 352.505C395.522 352.46 395.611 352.371 395.686 352.327C395.775 352.237 395.864 352.148 395.939 352.118L396.073 351.984L396.207 351.851L398.871 349.307L399.05 349.128C399.05 349.128 399.109 349.069 399.154 349.024C399.615 348.593 400.092 348.146 400.568 347.685C402.414 345.9 404.394 343.892 406.314 341.913C406.746 341.467 407.177 341.021 407.609 340.589C408.696 339.459 409.767 338.328 410.824 337.183C410.884 337.123 410.928 337.064 410.988 337.004C411.018 336.974 411.047 336.945 411.077 336.915L411.286 336.677C412.209 335.665 413.206 334.594 414.218 333.464C414.114 333.568 414.01 333.672 413.92 333.791C414.01 333.687 414.099 333.583 414.203 333.478C414.501 333.181 414.769 332.883 415.022 332.571C415.111 332.526 415.156 332.437 415.23 332.363C415.409 332.184 415.573 331.976 415.751 331.768C415.573 331.902 415.498 332.021 415.364 332.155C415.32 332.199 415.275 332.244 415.23 332.244L415.186 332.259Z" fill="url(#paint2_linear_23_37081)"/>
<path d="M416.436 331.009C416.481 330.92 416.57 330.831 416.615 330.756C416.317 331.098 415.974 331.44 415.707 331.783C415.96 331.53 416.183 331.262 416.436 331.009Z" fill="url(#paint3_linear_23_37081)"/>
<path d="M14.5132 355.674C14.7216 356.15 14.9449 356.611 15.1533 357.072C15.4361 357.622 15.704 358.158 15.972 358.679C15.1235 356.894 14.2899 355.064 13.501 353.294C13.8136 354.097 14.1559 354.885 14.4983 355.674H14.5132Z" fill="url(#paint4_linear_23_37081)"/>
<path d="M204.333 282.751C204.407 283.242 204.452 283.733 204.512 284.209C204.482 283.867 204.437 283.465 204.363 282.974L204.333 282.736V282.751Z" fill="url(#paint5_linear_23_37081)"/>
<path d="M488.913 153.165C488.913 153.09 488.913 153.001 488.913 152.927V152.718C488.869 152.302 488.839 151.885 488.824 151.484C488.765 150.517 488.675 149.49 488.571 148.449C488.482 147.467 488.407 146.485 488.303 145.504C488.303 145.444 488.303 145.399 488.303 145.34C488.303 145.385 488.303 145.429 488.303 145.474C488.348 146.084 488.377 146.664 488.422 147.229C488.616 150.175 488.779 152.629 488.898 154.771C488.764 152.614 488.616 150.175 488.422 147.229C489.628 169.38 481.411 199.92 437.291 223.365C437.335 223.96 437.38 224.57 437.469 225.165C437.38 224.57 437.335 223.96 437.261 223.365C430.116 226.846 422.673 229.598 415.096 231.666C404.036 234.597 392.664 236.055 381.515 236.055C351.342 236.055 322.375 225.552 303.813 206.109C304.631 205.901 305.495 205.722 306.269 205.544L307.34 205.335L307.385 205.291H307.43C307.683 205.246 307.951 205.202 308.204 205.157C329.639 222.874 360.973 229.078 392.009 222.666C401.089 220.821 410.169 217.891 418.952 213.845C423.73 211.613 428.463 209.069 433.078 206.183C474.311 180.284 491.667 135.894 477.109 100.28C475.859 97.528 474.832 95.2073 473.834 93.1395C473.745 92.961 473.656 92.7528 473.537 92.5445C472.673 90.6552 471.81 88.9296 470.947 87.2486C469.919 85.2701 468.878 83.2915 467.627 81.1791C467.106 80.3609 466.645 79.4981 466.124 78.6353C465.26 77.2964 464.397 75.8832 463.415 74.3361C469.875 85.3444 473.105 97.6916 473.313 110.426C473.492 120.229 471.899 130.256 468.669 140.104C461.822 160.752 447.755 180.582 427.302 195.592C423.521 198.388 419.592 200.932 415.588 203.208C408.264 207.418 400.687 210.78 392.991 213.324C363.593 222.919 333.077 219.869 310.898 204.725H310.719C311.627 204.547 312.565 204.383 313.473 204.16C335.042 215.079 362.164 214.484 387.558 202.435C393.84 199.43 400.047 195.77 405.986 191.382C409.261 188.972 412.491 186.353 415.588 183.512C426.781 173.396 435.683 161.57 442.277 149.014C458.16 118.637 460.14 83.7973 445.85 57.3029C444.123 54.0748 442.143 50.9805 439.91 48.0499C435.951 42.754 431.426 38.2466 426.439 34.4978C422.048 31.2697 415.9 27.3126 411.286 24.3522H411.241C411.241 24.3522 411.196 24.3076 411.152 24.263C409.514 23.3109 407.877 22.3737 406.329 21.5555C405.644 21.1688 404.989 20.8266 404.304 20.4845C404.096 20.3506 403.828 20.2316 403.575 20.0977C402.548 19.577 401.461 19.0266 400.389 18.5059L400.047 18.2977C399.913 18.253 399.839 18.2084 399.749 18.1638C399.615 18.1191 399.496 18.0299 399.362 17.9853C399.02 17.8067 398.722 17.6877 398.38 17.5092C398.425 17.539 398.469 17.5539 398.514 17.5836C398.469 17.5687 398.425 17.539 398.38 17.5241C398.082 17.3753 397.785 17.2266 397.487 17.0778C397.561 17.1076 397.636 17.1522 397.71 17.1968C397.442 17.0629 397.159 16.9439 396.891 16.8249C396.847 16.81 396.802 16.7952 396.772 16.7654C395.969 16.4084 395.18 16.0514 394.361 15.7241C394.361 15.7241 394.391 15.7241 394.406 15.739C395.879 16.3935 397.338 17.0629 398.782 17.7472C399.556 18.1489 400.345 18.5506 401.178 18.9671C401.178 18.9671 401.178 18.9671 401.193 18.9671C407.773 22.6266 413.846 27.5209 419.145 33.6796C420.217 34.8846 421.259 36.1342 422.241 37.4284C443.974 66.3327 444.108 110.47 425.427 147.423C420.053 158.044 413.117 168.071 404.721 176.981H404.677L404.632 177.026C401.923 179.957 399.124 182.575 396.236 185.074C391.205 189.463 385.995 193.167 380.607 196.306C358.651 209.173 334.715 211.792 314.441 203.922C322.107 201.735 329.252 196.871 335.355 189.254C337.766 186.324 339.954 182.977 342.024 179.228C343.408 176.684 344.688 173.976 345.938 171.091C345.804 171.091 345.685 171.135 345.551 171.135C345.685 171.091 345.804 171.091 345.938 171.046C348.692 164.426 350.806 157.196 352.265 149.624C353.947 141.07 354.81 132.07 354.929 122.907C354.974 117.016 354.751 111.036 354.2 105.055C352.041 81.5659 345.164 58.0318 334.179 39.1094C331.901 35.1077 329.401 31.3589 326.736 27.7886C325.828 26.6283 324.935 25.468 324.027 24.3522C318.906 18.1638 313.518 13.2546 308.01 9.68437C301.163 5.16202 294.152 2.72234 287.305 2.29093C285.533 2.20167 283.777 2.20167 282.05 2.38019C281.484 2.42481 280.934 2.51407 280.368 2.5587L268.742 4.53723L268.4 4.62648C268.192 4.67111 267.924 4.71574 267.715 4.76037C267.462 4.805 267.194 4.84963 266.986 4.89425C262.55 5.84633 257.176 7.12567 252.785 8.167C254.72 7.82485 256.7 7.69097 258.724 7.78023C265.095 8.07775 271.898 10.6662 278.79 15.5604C283.658 18.9968 288.555 23.6531 293.378 29.4101C294.584 30.8234 295.789 32.3407 296.95 33.9325C298.722 36.2085 300.389 38.6631 302.026 41.1623C315.066 61.1707 324.369 86.8469 328.716 112.226C329.698 117.953 330.443 123.665 330.874 129.303C331.559 137.991 331.648 146.426 331.008 154.474C330.443 161.659 329.326 168.547 327.614 174.824V174.869C326.84 177.666 325.977 180.284 324.995 182.739C323.58 186.353 321.988 189.582 320.172 192.423C315.483 199.861 309.543 204.517 302.875 206.362L302.741 206.406C302.607 206.451 302.532 206.451 302.398 206.496C301.714 206.674 300.984 206.883 300.195 207.091C300.151 207.135 300.106 207.135 300.106 207.135C314.828 225.031 337.647 237.289 362.863 242.63C376.126 245.427 389.985 246.334 403.709 245.084C415.245 244.013 426.647 241.425 437.41 237.26C467.97 224.392 484.671 205.261 488.541 178.752C488.586 178.454 488.631 178.157 488.675 177.844C488.675 177.71 488.675 177.591 488.72 177.458C488.765 176.044 488.854 174.572 488.898 173.024C488.898 172.593 488.943 172.206 488.943 171.819V171.522C489.032 168.978 489.107 166.881 489.152 164.991C489.107 166.97 489.047 169.171 488.943 171.79C488.943 171.76 488.943 171.73 488.943 171.715C489.077 169.216 489.181 166.791 489.226 164.605C489.315 161.213 489.122 156.839 488.913 153.18V153.165Z" fill="url(#paint6_linear_23_37081)"/>
<path d="M311.359 391.659C310.407 385.857 308.814 379.357 306.76 372.394C304.214 363.96 300.91 354.796 297.039 345.379C294.107 338.373 290.921 331.232 287.483 324.092C280.427 309.513 272.329 294.845 263.815 281.546C260.332 276.131 256.804 270.924 253.261 266.015C252.398 264.81 251.49 263.65 250.641 262.49C245.684 255.87 240.996 250.365 236.738 245.977L235.92 245.159L236.307 244.772C235.146 245.843 232.779 245.635 229.162 243.998C227.39 243.18 225.381 242.065 223.044 240.607C221.406 239.58 219.605 238.375 217.7 236.992H217.655C210.852 232.083 203.023 225.552 194.538 217.891C172.463 197.882 146.503 170.228 126.318 144.938C123.609 141.547 120.974 138.14 118.488 134.867C110.911 124.796 105.314 116.406 101.697 109.875C100.015 106.826 98.7649 104.148 97.9462 101.916C96.6958 98.5544 96.4874 96.1891 97.2615 94.9544C97.3061 94.8652 97.3061 94.8205 97.3508 94.7759C97.4401 94.6866 97.5592 94.5676 97.6931 94.4338C97.4847 94.6123 97.3061 94.7759 97.0977 94.9544L94.2546 97.6619L90.429 101.277C89.9527 101.753 89.4317 102.229 88.9256 102.735C88.9256 102.735 88.8958 102.75 88.8363 102.779C87.7645 103.85 86.6779 104.936 85.6508 106.007C83.4626 108.239 81.2149 110.574 79.2352 112.627C78.7588 113.193 78.2378 113.698 77.7317 114.219C77.5531 114.398 77.3447 114.606 77.1661 114.814C77.0321 114.948 76.9577 115.067 76.8684 115.201C76.7791 115.245 76.7344 115.335 76.6897 115.379C74.71 118.131 74.71 122.654 76.7344 128.679C77.8062 131.996 79.5329 135.775 81.8103 139.955C84.9065 145.548 89.0447 151.871 94.329 158.877C101.266 168.13 109.482 177.636 118.429 186.919C131.349 200.382 145.714 213.369 159.84 224.436C175.202 236.486 190.311 246.245 202.799 251.749H202.844C205.389 252.865 207.667 253.772 209.855 254.501C212.996 255.528 215.75 256.137 218.161 256.346C222.255 256.732 225.172 255.914 226.944 254.025L226.988 253.98C227.122 253.891 227.197 253.772 227.286 253.683C227.465 253.504 227.628 253.341 227.807 253.162L229.057 251.868L230.397 250.484C234.148 254.099 238.063 258.488 242.112 263.65C242.633 264.334 243.139 265.033 243.705 265.762C246.459 269.466 249.168 273.379 251.847 277.47C263.681 295.797 273.967 317.784 281.335 339.325C283.136 344.665 284.774 349.946 286.203 355.153C288.614 364.064 290.46 372.751 291.576 380.829C292.574 387.791 292.991 394.381 292.871 400.362C292.827 402.772 292.663 405.048 292.395 407.16C292.008 410.686 291.368 413.735 290.46 416.368C288.778 421.397 286.247 424.848 283.017 426.648C282.883 426.692 282.764 426.782 282.63 426.826C281.99 427.079 281.291 427.392 280.606 427.645C280.993 427.511 281.424 427.392 281.812 427.258L286.545 425.19H286.59C286.59 425.19 286.59 425.145 286.634 425.145C292.142 422.691 299.079 419.299 304.929 416.413C305.926 415.937 306.819 415.506 307.727 415.074C308.025 414.896 308.293 414.732 308.59 414.509C310.481 413.051 311.687 410.344 312.163 406.342C312.416 404.021 312.416 401.269 312.163 398.041C311.984 396.062 311.731 393.95 311.389 391.674L311.359 391.659Z" fill="url(#paint7_linear_23_37081)"/>
<path d="M266.435 346.807C261.746 322.351 252.517 297.627 240.013 277.99C238.063 274.926 236.024 271.98 233.925 269.169C233.821 269.199 233.717 269.228 233.628 269.243C233.523 269.273 233.434 269.288 233.33 269.318C233.523 269.258 233.717 269.199 233.925 269.154C232.868 267.756 231.812 266.402 230.74 265.123C228.433 262.326 226.11 259.782 223.803 257.521C223.401 257.982 223.014 258.428 222.657 258.845C222.627 258.889 222.583 258.919 222.553 258.964C222.553 258.964 222.434 259.113 222.374 259.187C222.344 259.217 222.315 259.261 222.285 259.291C222.24 259.351 222.196 259.41 222.151 259.47C222.106 259.514 222.076 259.559 222.032 259.604C222.017 259.618 222.002 259.648 221.987 259.663C221.302 260.481 220.573 261.404 219.859 262.296C221.213 263.709 222.553 265.212 223.878 266.804C224.935 268.068 225.977 269.377 227.004 270.746C227.197 270.716 227.406 270.686 227.599 270.642C227.525 270.642 227.465 270.671 227.391 270.686C227.257 270.716 227.138 270.731 227.004 270.761C229.296 273.795 231.454 277.024 233.494 280.4C245.238 299.814 252.77 324.27 255.331 348.652C255.896 354.112 256.224 359.571 256.298 364.956C256.417 374.328 255.747 383.507 254.259 392.195C252.964 399.767 251.044 406.981 248.468 413.631C248.722 413.586 248.975 413.542 249.213 413.497C248.96 413.542 248.707 413.586 248.454 413.631C247.382 416.413 246.206 419.016 244.97 421.456C242.901 425.532 240.609 429.132 238.138 432.256C232.124 439.843 225.039 444.618 217.402 446.522L216.643 446.641C215.259 446.879 213.889 447.117 212.55 447.326C213.339 447.251 214.128 447.162 214.917 447.028C214.917 447.028 214.917 447.028 214.931 447.028H215.021L220.96 445.927C221.109 445.897 221.273 445.853 221.422 445.823C221.496 445.823 221.57 445.793 221.645 445.778C221.779 445.749 221.913 445.734 222.047 445.704C222.761 445.555 223.506 445.392 224.28 445.228C226.349 444.826 228.388 444.41 230.383 443.964C232.854 443.413 235.339 442.818 237.557 442.208C238.034 442.074 238.525 441.94 238.986 441.807C239.865 441.554 240.713 441.316 241.547 441.063C241.74 441.018 241.934 440.973 242.112 440.914C243.02 440.661 243.958 440.408 244.911 440.14C245.194 440.051 245.476 439.947 245.759 439.843C245.804 439.828 245.849 439.798 245.893 439.783C251.297 437.671 256.06 433.446 259.915 427.109C261.731 424.119 263.339 420.668 264.708 416.74C265.512 414.464 266.227 412.024 266.852 409.436C268.4 403.084 269.338 396.167 269.71 388.877C270.142 380.442 269.799 371.532 268.787 362.398C268.207 357.251 267.418 352.029 266.405 346.793L266.435 346.807Z" fill="url(#paint8_linear_23_37081)"/>
<path d="M223.669 415.803C227.807 408.707 231.112 401.046 233.746 392.953C237.066 382.674 239.165 371.785 240.073 360.732C240.668 353.07 240.758 345.335 240.251 337.674C239.09 320.596 235.086 303.949 228.328 289.49C225.917 284.238 223.118 279.3 219.977 274.688C219.203 273.617 218.474 272.576 217.7 271.549C216.881 270.478 216.063 269.437 215.199 268.41C215.452 268.113 215.676 267.771 215.884 267.458L216.316 266.818C214.47 269.362 211.835 271.385 208.441 272.709C206.714 273.394 204.824 273.914 202.755 274.301C202.547 274.301 202.368 274.346 202.189 274.39C200.031 274.688 197.753 274.866 195.223 274.822C191.948 274.822 188.376 274.48 184.505 273.825C146.279 267.324 92.6025 231.889 64.588 194.714C63.5907 193.375 62.6529 192.096 61.7449 190.801C57.3537 184.524 54.0342 178.633 51.7567 173.248C47.2315 162.492 46.7999 153.671 50.298 147.571C50.4319 147.318 50.5957 147.051 50.7743 146.798L45.9961 153.462L45.743 153.849C45.743 153.849 45.6537 153.938 45.609 154.028C45.5644 154.117 45.4751 154.206 45.4006 154.325C44.5819 155.53 43.7632 156.824 42.8552 158.148C41.7388 159.829 40.5331 161.629 39.372 163.444C38.1216 165.423 36.9159 167.446 35.7102 169.424C35.6209 169.558 35.5762 169.633 35.5018 169.722L35.3232 170.064C35.2785 170.153 35.2339 170.198 35.1892 170.272C35.1445 170.362 35.0552 170.481 35.0106 170.57C34.9659 170.614 34.9659 170.659 34.9213 170.659C34.832 170.838 34.7873 170.957 34.7129 171.091C34.6682 171.091 34.6682 171.135 34.6682 171.135C34.4598 171.567 34.2365 171.953 34.0281 172.385C29.1159 182.188 30.7533 195.696 39.5804 211.063C41.6048 214.544 43.927 218.069 46.6808 221.729C49.9109 226.028 53.5281 230.253 57.4876 234.329C87.6158 265.643 136.306 289.772 173.49 290.427C178.908 290.561 183.821 290.129 188.212 289.267C194.97 287.928 200.433 285.518 204.616 282.215C204.66 282.171 204.705 282.126 204.794 282.081C214.053 316.326 196.622 356.715 158.649 381.32V381.365C153.96 384.414 149.093 387.092 144.136 389.457C136.083 393.236 127.821 396.122 119.471 398.1C81.7658 406.922 43.2422 396.806 22.5812 369.36C20.393 366.429 18.4431 363.38 16.7759 360.241C17.5946 361.922 18.3686 363.38 19.0534 364.718C20.7801 367.946 22.1942 370.49 23.8316 373.109C25.9453 376.471 28.4014 379.952 32.0484 385.233C32.093 385.277 32.093 385.322 32.1377 385.366C32.227 385.456 32.2717 385.545 32.3907 385.664C33.1201 386.616 33.9388 387.687 34.8022 388.714C35.3232 389.353 35.8739 390.008 36.4396 390.603C58.872 415.773 97.083 422.14 133.121 409.02C139.968 406.52 146.726 403.292 153.305 399.424C157.22 397.059 161.091 394.471 164.842 391.6C164.708 391.466 164.633 391.302 164.499 391.124C166.434 391.376 168.072 388.282 169.575 387.077L173.058 384.028C173.445 383.685 173.832 383.343 174.219 383.001C174.86 382.436 175.425 381.841 176.021 381.231C176.155 381.142 176.274 381.023 176.408 380.889C176.973 380.323 177.524 379.818 178.09 379.252L178.566 378.776C178.953 378.345 179.385 377.914 179.772 377.527C179.98 377.318 180.203 377.051 180.382 376.842C180.724 376.5 181.067 376.114 181.409 375.771C181.618 375.518 181.841 375.295 182.049 375.042C182.347 374.7 182.689 374.358 183.002 373.971C183.21 373.763 183.434 373.495 183.642 373.242C183.94 372.9 184.237 372.513 184.55 372.171C184.758 371.918 184.982 371.695 185.19 371.442C185.279 371.353 185.324 371.264 185.398 371.145C185.652 370.892 185.875 370.58 186.083 370.327C186.262 370.074 186.47 369.851 186.649 369.598C186.991 369.211 187.289 368.824 187.602 368.393C187.78 368.185 187.944 367.961 188.123 367.753C188.51 367.232 188.897 366.727 189.284 366.206C189.373 366.117 189.462 365.998 189.492 365.908C189.879 365.343 190.266 364.837 190.653 364.272C190.742 364.183 190.832 364.094 190.861 364.019C190.995 363.841 191.114 363.632 191.248 363.454C191.382 363.275 191.457 363.112 191.591 362.933C191.635 362.889 191.68 362.799 191.769 362.725C191.859 362.591 191.948 362.472 191.978 362.338C192.067 362.249 192.112 362.16 192.156 362.13C192.335 361.877 192.499 361.609 192.633 361.401C192.841 361.103 193.064 360.806 193.228 360.494C193.273 360.404 193.318 360.315 193.407 360.241C193.407 360.241 193.407 360.196 193.452 360.196C193.496 360.062 193.585 359.943 193.66 359.809C193.749 359.675 193.839 359.556 193.913 359.422C194.166 359.036 194.389 358.649 194.642 358.262C194.687 358.173 194.776 358.054 194.821 357.965C194.821 357.965 194.866 357.92 194.866 357.875C194.955 357.741 195.044 357.578 195.119 357.444C195.372 357.057 195.595 356.67 195.803 356.284C195.982 356.031 196.101 355.763 196.28 355.51C196.324 355.421 196.414 355.332 196.458 355.213C196.503 355.168 196.548 355.079 196.548 355.034C196.637 354.9 196.726 354.781 196.801 354.603C196.845 354.513 196.935 354.394 196.979 354.26C197.158 354.008 197.277 353.74 197.411 353.487C197.5 353.353 197.545 353.279 197.619 353.145C197.664 353.055 197.709 352.936 197.753 352.847C197.887 352.669 197.962 352.505 198.051 352.327C198.096 352.282 198.096 352.237 198.14 352.193C198.23 351.94 198.349 351.717 198.483 351.508C198.527 351.419 198.572 351.3 198.661 351.211C198.795 350.958 198.914 350.69 199.048 350.437C199.138 350.259 199.227 350.051 199.346 349.872C199.346 349.783 199.391 349.738 199.435 349.664C199.435 349.619 199.48 349.574 199.525 349.53C199.569 349.441 199.614 349.351 199.659 349.277C199.793 348.979 199.912 348.682 200.046 348.414C200.18 348.117 200.343 347.804 200.477 347.507C200.477 347.507 200.522 347.462 200.522 347.417C200.567 347.328 200.611 347.284 200.611 347.209C200.745 346.956 200.864 346.689 200.998 346.436C201.043 346.302 201.088 346.183 201.177 346.093C201.222 345.885 201.311 345.662 201.43 345.484C201.43 345.439 201.475 345.35 201.475 345.305C201.519 345.216 201.519 345.171 201.564 345.126C201.609 344.993 201.653 344.918 201.698 344.829C201.787 344.695 201.832 344.576 201.877 344.442C202.055 344.1 202.174 343.803 202.308 343.46C202.353 343.326 202.442 343.163 202.487 343.029C202.576 342.85 202.621 342.731 202.666 342.598C202.71 342.553 202.755 342.508 202.755 342.464C202.755 342.419 202.755 342.374 202.8 342.33C202.844 342.241 202.889 342.122 202.934 342.032C203.023 341.854 203.068 341.69 203.112 341.512C203.157 341.467 203.157 341.422 203.157 341.378C203.246 341.244 203.335 341.08 203.365 340.902C203.41 340.723 203.499 340.604 203.544 340.426C203.633 340.173 203.752 339.905 203.842 339.607C203.931 339.474 203.976 339.31 204.02 339.131C204.065 338.998 204.154 338.923 204.199 338.789C204.243 338.655 204.243 338.581 204.288 338.447C204.422 338.15 204.497 337.852 204.631 337.54C204.72 337.287 204.809 337.019 204.884 336.721C204.884 336.721 204.898 336.692 204.928 336.632C205.107 336.112 205.315 335.561 205.449 335.04C205.539 334.788 205.583 334.52 205.658 334.267C205.702 334.178 205.747 334.133 205.747 334.088C205.881 333.612 206 333.181 206.134 332.75C206.179 332.616 206.223 332.497 206.268 332.363C206.313 332.229 206.313 332.155 206.357 332.021C206.536 331.455 206.744 330.86 206.878 330.295C206.968 329.997 207.057 329.73 207.087 329.477C207.295 328.748 207.474 328.064 207.608 327.364C207.742 326.978 207.816 326.591 207.861 326.204C208.069 325.52 208.203 324.821 208.292 324.136C208.337 323.839 208.426 323.541 208.471 323.229C208.471 323.184 208.471 323.14 208.516 323.05C208.56 322.708 208.65 322.366 208.694 322.024C208.873 321.34 208.947 320.611 209.037 319.911C209.081 319.778 209.081 319.659 209.081 319.525C209.171 319.093 209.215 318.706 209.26 318.275C209.26 318.186 209.26 318.067 209.305 317.978C209.305 317.844 209.349 317.725 209.349 317.591C209.394 317.293 209.439 316.951 209.483 316.594L209.617 315.181C209.662 315.047 209.662 314.973 209.662 314.839V314.794C209.706 314.66 209.706 314.586 209.706 314.452C209.706 314.363 209.706 314.273 209.751 314.244V313.812C209.796 313.634 209.796 313.515 209.796 313.336C209.84 313.128 209.84 312.949 209.84 312.741C209.84 312.607 209.885 312.488 209.885 312.31V311.923C209.93 311.715 209.93 311.492 209.93 311.328V311.12C209.974 310.986 209.974 310.822 209.974 310.688V310.004C210.019 309.825 210.019 309.662 210.019 309.483V308.62C210.019 308.412 210.064 308.144 210.064 307.892V305.779C210.064 305.601 210.064 305.482 210.019 305.303V303.964C209.974 303.875 209.974 303.756 209.974 303.667V303.325C209.974 303.116 209.93 302.849 209.93 302.596V302.387C209.93 302.328 209.915 302.283 209.885 302.253V302.209C209.885 302.209 209.885 302.12 209.885 302.03V301.599C209.885 301.51 209.885 301.42 209.84 301.346V301.301C209.84 301.123 209.84 300.959 209.796 300.736C209.796 300.528 209.796 300.349 209.751 300.141C209.751 299.963 209.751 299.799 209.706 299.576V299.397C209.706 299.308 209.662 299.219 209.662 299.144V298.891C209.662 298.891 209.617 298.758 209.617 298.639C209.617 298.549 209.617 298.46 209.572 298.386V298.296C209.528 298.088 209.528 297.82 209.483 297.612V297.404C209.439 297.151 209.394 296.883 209.349 296.63V296.333C209.305 296.199 209.305 296.08 209.26 295.946C209.26 295.812 209.26 295.738 209.215 295.604C209.215 295.515 209.215 295.425 209.171 295.351C209.171 295.143 209.126 294.875 209.081 294.667C209.081 294.622 209.081 294.533 209.037 294.488C208.992 294.191 208.947 293.923 208.903 293.625V293.581C208.903 293.491 208.858 293.447 208.858 293.372V293.283C208.813 293.105 208.769 292.896 208.724 292.688C208.679 292.346 208.59 292.004 208.516 291.662C208.516 291.528 208.471 291.409 208.471 291.275C208.426 291.186 208.426 291.067 208.382 290.977C208.382 290.843 208.337 290.724 208.337 290.591C208.248 290.293 208.203 290.025 208.129 289.728C208.084 289.549 208.084 289.43 208.039 289.252C207.995 289.118 207.95 288.999 207.905 288.82C207.861 288.642 207.816 288.478 207.771 288.3C207.771 288.166 207.727 288.091 207.682 287.957C207.682 287.868 207.637 287.749 207.637 287.66C207.548 287.407 207.503 287.139 207.429 286.886C207.34 286.589 207.25 286.291 207.176 285.979C207.176 285.934 207.176 285.89 207.131 285.845C207.131 285.711 207.087 285.548 207.042 285.414C206.997 285.369 206.997 285.28 206.997 285.28C206.997 285.235 206.997 285.191 206.953 285.146L206.908 285.101C206.908 285.101 206.908 284.967 206.863 284.923C206.729 284.447 206.61 284.015 206.432 283.539L206.774 282.81L208.188 280.014C220.618 306.597 217.998 340.664 202.323 370.327C196.027 382.257 187.616 393.474 177.226 403.203C177.271 403.233 177.301 403.262 177.345 403.277C177.301 403.248 177.271 403.233 177.226 403.203C174.145 405.955 171.034 408.499 167.893 410.864C162.415 414.985 156.863 418.511 151.281 421.456C123.743 435.916 95.2223 435.975 69.9468 420.965C69.783 420.861 69.6193 420.757 69.4407 420.668C69.6639 420.816 69.8872 420.98 70.1105 421.129C70.8548 421.649 71.5842 422.14 72.2689 422.616C72.5815 422.825 72.909 423.033 73.2365 423.241C73.4002 423.345 73.5491 423.449 73.7128 423.539C73.9956 423.717 74.2933 423.896 74.591 424.089C75.8116 424.863 77.0174 425.592 78.1636 426.246C78.3273 426.335 78.491 426.44 78.6548 426.529C79.9796 427.273 81.4681 428.12 83.0013 428.968C83.046 428.998 83.1055 429.028 83.1502 429.058C84.2815 429.668 85.3979 430.248 86.4994 430.828C88.6132 431.944 90.6078 432.896 93.1086 434.026C94.4631 434.636 95.9815 435.306 97.7528 436.079C97.8719 436.139 97.991 436.183 98.1101 436.228C98.0505 436.198 97.9761 436.169 97.9166 436.139C96.562 435.559 95.2372 434.934 93.9124 434.264C97.0086 435.588 100.358 436.957 103.633 438.236C122.85 444.276 144.865 441.048 165.05 428.805C170.379 425.577 175.589 421.724 180.576 417.231C183.3 414.777 185.964 412.144 188.539 409.332C188.465 409.302 188.39 409.258 188.301 409.228C188.376 409.258 188.465 409.302 188.539 409.332C196.741 400.377 203.455 390.305 208.664 379.639C217.492 361.52 221.913 341.72 221.6 322.827C221.526 318.29 221.183 313.812 220.558 309.424C218.906 297.761 215.318 286.738 209.721 276.994C210.064 276.399 210.406 275.833 210.719 275.268C210.808 275.224 210.808 275.134 210.853 275.09C211.031 274.837 211.195 274.569 211.329 274.316L212.624 272.293C214.738 275.179 216.673 278.273 218.385 281.457C223.371 290.531 226.944 300.691 229.102 311.402C229.445 313.247 229.787 315.106 230.1 316.996C231.99 329.164 232.124 341.943 230.531 354.588C228.983 366.712 225.887 378.761 221.228 390.082C217.655 398.77 213.13 407.026 207.712 414.553C205.598 417.484 203.41 420.236 201.162 422.765C197.292 427.154 193.243 430.977 189.031 434.249C174.74 445.392 158.768 450.256 143.526 448.531C146.458 448.917 149.465 449.259 152.263 449.557H152.397C152.695 449.602 152.963 449.646 153.216 449.646C153.856 449.736 154.511 449.78 155.107 449.855C155.449 449.855 155.791 449.899 156.134 449.899C156.55 449.929 156.997 449.944 157.444 449.974C156.982 449.944 156.536 449.929 156.119 449.899C157.622 450.018 159.2 450.137 160.808 450.226C162.728 450.345 164.589 450.45 166.241 450.479C166.33 450.479 166.42 450.479 166.509 450.479C166.792 450.479 167.074 450.494 167.357 450.509C167.581 450.509 167.804 450.509 168.027 450.524C168.28 450.524 168.518 450.524 168.771 450.539C169.307 450.539 169.843 450.554 170.349 450.569C170.721 450.569 171.108 450.569 171.481 450.569C171.644 450.569 171.793 450.569 171.957 450.569C171.987 450.569 172.031 450.569 172.061 450.569H173.178C174.16 450.569 175.157 450.524 176.11 450.435C187.438 449.572 198.587 444.455 208.486 435.202C211.88 432.018 215.155 428.314 218.251 424.104C220.141 421.486 221.957 418.689 223.714 415.714L223.669 415.803Z" fill="url(#paint9_linear_23_37081)"/>
<path d="M16.6418 360.077C16.6418 360.077 16.7162 360.211 16.746 360.27C16.6566 360.077 16.5524 359.884 16.4482 359.675C16.5078 359.809 16.5673 359.943 16.6418 360.062V360.077Z" fill="url(#paint10_linear_23_37081)"/>
<path d="M460.333 69.6203C461.42 71.1675 462.432 72.7592 463.385 74.3658C462.462 72.9229 461.464 71.3609 460.333 69.6203Z" fill="url(#paint11_linear_23_37081)"/>
<path d="M468.729 239.759C460.408 248.089 448.529 254.62 433.495 258.354C414.501 263.07 393.334 262.623 372.97 258.042C357.281 254.501 342.053 248.506 328.671 240.503C315.87 232.841 304.765 223.35 296.534 212.416C296.534 212.431 296.534 212.461 296.519 212.476C296.519 212.461 296.519 212.431 296.534 212.416C295.685 211.301 294.881 210.17 294.122 209.04C293.244 209.352 292.217 209.709 290.996 210.14C290.416 210.364 289.79 210.616 289.15 210.869C290.684 213.398 292.395 215.942 294.331 218.501C294.375 218.382 294.42 218.278 294.479 218.159C294.435 218.278 294.39 218.382 294.345 218.501C298.454 223.945 303.247 229.137 308.561 234.017C317.076 241.812 326.959 248.789 337.632 254.694C365.796 270.285 399.407 278.452 427.645 274.599C427.972 273.825 428.315 273.052 428.627 272.293C428.315 273.066 427.987 273.825 427.66 274.599C436.636 273.379 444.406 271.028 450.866 267.756C458.77 263.754 464.739 258.384 468.61 252.032C468.714 251.868 468.818 251.689 468.922 251.526C469.324 250.842 469.681 250.157 470.039 249.458C470.128 249.265 470.232 249.086 470.321 248.893C470.515 248.491 470.708 248.075 470.887 247.658C470.902 247.628 470.917 247.584 470.932 247.539C471.616 245.828 472.316 243.984 473.045 242.065C473.165 241.737 473.299 241.395 473.433 241.053C475.665 235.117 478.002 228.587 479.937 222.8C479.967 222.726 479.997 222.636 480.027 222.562C480.027 222.592 479.997 222.621 479.982 222.666C477.63 228.899 473.864 234.671 468.773 239.774L468.729 239.759Z" fill="url(#paint12_linear_23_37081)"/>
<path d="M98.3334 378.152C109.572 377.973 120.974 376.352 132.034 373.123C139.477 370.966 146.756 368.14 153.767 364.57C188.167 347.105 206.67 316.996 204.824 287.734C204.735 286.782 204.69 285.845 204.571 284.938C204.616 285.622 204.616 286.276 204.66 287.437V287.526C200.835 295.143 194.374 301.629 185.413 306.449C178.834 309.974 170.87 312.607 161.701 314.065H161.656C134.624 318.409 102.859 311.878 75.4842 298.237C62.5339 291.825 50.6106 283.777 40.6671 274.539C35.7549 270.017 31.319 265.167 27.4935 260.08C14.4538 242.749 10.658 225.671 15.0046 211.598C15.0939 211.39 15.1385 211.122 15.213 210.914C15.213 210.869 15.2576 210.825 15.2576 210.78C15.2576 210.735 15.3023 210.691 15.3023 210.646C15.6 209.828 15.8977 209.054 16.2549 208.281C16.0019 208.846 15.7786 209.441 15.5255 210.006C15.0492 211.211 14.5729 212.416 14.1114 213.577C14.0668 213.666 14.0668 213.755 14.0221 213.83C13.9775 213.919 13.9328 214.008 13.9328 214.083C13.5458 215.154 13.1588 216.24 12.7271 217.355C12.3847 218.263 12.087 219.2 11.7298 220.197C11.4767 221.015 11.1641 221.788 10.911 222.517C9.57136 226.385 8.06792 231.458 6.95151 235.638C6.8622 236.07 6.74312 236.501 6.65381 236.888C6.60915 236.977 6.60915 237.096 6.56449 237.185V237.319C6.56449 237.319 6.51984 237.364 6.51984 237.408C0.327481 268.128 21.6732 297.508 54.4659 315.523C67.9373 322.916 83.3437 328.435 99.5838 331.307C118.012 334.579 137.467 334.535 156.312 330.146H156.357C176.81 324.553 188.51 315.181 195.312 306.523C201.162 299.04 203.455 292.108 204.616 288.448C204.363 296.199 202.294 306.939 194.881 318.171C187.482 329.447 174.741 341.184 153.127 350.958H153.082C142.886 354.826 132.51 357.37 122.225 358.694C108.024 360.583 94.0315 360.196 80.8132 357.92C37.2881 350.363 2.67938 321.756 0.267938 283.004C0.223282 282.319 0.223282 281.591 0.178626 280.847V281.665C0.178626 281.873 0.133969 282.096 0.133969 282.305V282.691C0.0893128 283.257 0.0893128 283.807 0.0893128 284.372L0 285.964C0 286.217 0.0446564 286.44 0.0446564 286.648C0 287.511 0 288.374 0 289.222C0.0446564 290.605 0.0893128 292.019 0.178626 293.432C0.223282 293.819 0.223282 294.25 0.223282 294.637C0.267938 295.158 0.267938 295.634 0.312595 296.095V296.69C0.312595 296.987 0.312595 297.285 0.357251 297.597V297.895C0.401908 298.415 0.401908 298.891 0.446564 299.397C0.49122 299.918 0.535877 300.468 0.580533 301.078V301.167C0.62519 301.51 0.669846 301.852 0.669846 302.164C0.714503 302.551 0.759159 302.938 0.803815 303.325C0.848472 303.711 0.893128 304.143 0.937785 304.53C0.982441 304.961 1.0271 305.392 1.07175 305.824C1.07175 305.868 1.11641 305.958 1.11641 306.032C1.16107 306.553 1.25038 307.058 1.29504 307.579C1.33969 307.966 1.38435 308.397 1.47366 308.784V308.992C1.51832 309.335 1.56297 309.632 1.60763 309.989C1.60763 310.168 1.65229 310.287 1.65229 310.465V310.599L1.83091 311.67V311.759C1.83091 311.849 1.87557 311.893 1.87557 311.938C3.42366 322.44 7.63625 332.675 14.7068 342.092C32.7034 365.968 64.8113 378.657 98.393 378.137L98.3334 378.152Z" fill="url(#paint13_linear_23_37081)"/>
<path d="M326.676 0.282647C326.974 0.327275 327.272 0.371904 327.584 0.416532C335.116 1.36861 342.514 4.19507 349.54 8.89593C355.614 12.9869 361.374 18.4464 366.584 25.3787C367.224 26.2415 367.879 27.1787 368.519 28.0862C371.884 32.8614 374.801 38.0681 377.302 43.5722C384.06 58.4186 387.885 75.5411 388.63 93.0503C388.927 100.057 388.764 107.123 388.064 114.13C387.037 125.019 384.789 135.73 381.395 145.875C378.552 154.266 374.89 162.269 370.425 169.573C368.653 172.548 366.763 175.3 364.783 177.874C361.806 181.786 358.621 185.312 355.316 188.406C343.571 199.296 330.13 204.666 316.792 204.368C316.614 204.339 316.435 204.309 316.257 204.279L316.792 204.368H316.123C316.376 204.368 316.718 204.368 316.941 204.413C333.598 207.344 351.505 202.613 367.388 190.385C371.526 187.246 375.486 183.586 379.267 179.466C381.589 176.877 383.837 174.17 386.069 171.254H386.114V171.21C392.009 163.251 396.921 154.519 400.791 145.31C405.748 133.484 408.963 120.913 410.437 108.269C413.28 84.3031 409.797 60.0847 399.809 40.5524C397.531 36.1193 394.941 31.9093 392.024 28.0267C388.019 22.6861 383.628 18.2679 378.939 14.6084C371.541 8.88106 363.443 5.2364 354.959 3.51077C354.825 3.46614 354.661 3.42151 354.482 3.37688L351.982 2.9901C349.957 2.64795 347.933 2.26117 345.908 1.96365C344.911 1.82977 343.929 1.71076 343.021 1.57687C342.544 1.53224 342.023 1.48761 341.517 1.44299C338.763 1.10083 336.01 0.84794 333.211 0.58017C332.735 0.535541 332.229 0.535541 331.752 0.490913C330.978 0.401656 330.204 0.357027 329.386 0.312399C329.207 0.312399 328.998 0.267771 328.82 0.267771H328.344C327.659 0.223142 326.929 0.178514 326.185 0.133885C325.59 0.0892569 324.935 0.0892569 324.25 0.0446284C323.223 0.0446284 322.092 0 321.02 0C321.973 0.0446284 322.955 0.0892569 323.997 0.133885C324.86 0.178514 325.798 0.223142 326.706 0.267771L326.676 0.282647Z" fill="url(#paint14_linear_23_37081)"/>
<defs>
<linearGradient id="paint0_linear_23_37081" x1="458.577" y1="164.515" x2="186.917" y2="164.515" gradientUnits="userSpaceOnUse">
<stop stop-color="#12C2E2"/>
<stop offset="0.29" stop-color="#32529A"/>
<stop offset="0.3" stop-color="#34509A"/>
<stop offset="0.5" stop-color="#4F43A0"/>
<stop offset="0.61" stop-color="#593FA3"/>
<stop offset="0.64" stop-color="#5D41A7"/>
<stop offset="0.87" stop-color="#8153C8"/>
<stop offset="1" stop-color="#8F5BD5"/>
</linearGradient>
<linearGradient id="paint1_linear_23_37081" x1="128.506" y1="68.8765" x2="128.461" y2="68.8765" gradientUnits="userSpaceOnUse">
<stop stop-color="#14C3E3"/>
<stop offset="0.29" stop-color="#32529A"/>
<stop offset="0.3" stop-color="#34509A"/>
<stop offset="0.5" stop-color="#4F43A0"/>
<stop offset="0.61" stop-color="#593FA3"/>
<stop offset="0.64" stop-color="#5D41A7"/>
<stop offset="0.87" stop-color="#8153C8"/>
<stop offset="1" stop-color="#8F5BD5"/>
</linearGradient>
<linearGradient id="paint2_linear_23_37081" x1="415.707" y1="223.559" x2="128.506" y2="223.559" gradientUnits="userSpaceOnUse">
<stop stop-color="#0DC5E7"/>
<stop offset="0.29" stop-color="#32529A"/>
<stop offset="0.3" stop-color="#34509A"/>
<stop offset="0.5" stop-color="#4F43A0"/>
<stop offset="0.61" stop-color="#593FA3"/>
<stop offset="0.64" stop-color="#5D41A7"/>
<stop offset="0.87" stop-color="#8153C8"/>
<stop offset="1" stop-color="#8F5BD5"/>
</linearGradient>
<linearGradient id="paint3_linear_23_37081" x1="416.6" y1="331.262" x2="415.707" y2="331.262" gradientUnits="userSpaceOnUse">
<stop stop-color="#27D3F2"/>
<stop offset="0.29" stop-color="#32529A"/>
<stop offset="0.3" stop-color="#34509A"/>
<stop offset="0.5" stop-color="#4F43A0"/>
<stop offset="0.61" stop-color="#593FA3"/>
<stop offset="0.64" stop-color="#5D41A7"/>
<stop offset="0.87" stop-color="#8153C8"/>
<stop offset="1" stop-color="#8F5BD5"/>
</linearGradient>
<linearGradient id="paint4_linear_23_37081" x1="15.972" y1="355.986" x2="13.501" y2="355.986" gradientUnits="userSpaceOnUse">
<stop stop-color="#01CFF4"/>
<stop offset="0.29" stop-color="#32529A"/>
<stop offset="0.3" stop-color="#34509A"/>
<stop offset="0.5" stop-color="#4F43A0"/>
<stop offset="0.61" stop-color="#593FA3"/>
<stop offset="0.64" stop-color="#5D41A7"/>
<stop offset="0.87" stop-color="#8153C8"/>
<stop offset="1" stop-color="#8F5BD5"/>
</linearGradient>
<linearGradient id="paint5_linear_23_37081" x1="204.512" y1="283.48" x2="204.333" y2="283.48" gradientUnits="userSpaceOnUse">
<stop stop-color="#0EDAFF"/>
<stop offset="0.29" stop-color="#32529A"/>
<stop offset="0.3" stop-color="#34509A"/>
<stop offset="0.5" stop-color="#4F43A0"/>
<stop offset="0.61" stop-color="#593FA3"/>
<stop offset="0.64" stop-color="#5D41A7"/>
<stop offset="0.87" stop-color="#8153C8"/>
<stop offset="1" stop-color="#8F5BD5"/>
</linearGradient>
<linearGradient id="paint6_linear_23_37081" x1="489.241" y1="123.933" x2="252.77" y2="123.933" gradientUnits="userSpaceOnUse">
<stop stop-color="#0CD5FA"/>
<stop offset="0.29" stop-color="#32529A"/>
<stop offset="0.3" stop-color="#34509A"/>
<stop offset="0.5" stop-color="#4F43A0"/>
<stop offset="0.61" stop-color="#593FA3"/>
<stop offset="0.64" stop-color="#5D41A7"/>
<stop offset="0.87" stop-color="#8153C8"/>
<stop offset="1" stop-color="#8F5BD5"/>
</linearGradient>
<linearGradient id="paint7_linear_23_37081" x1="312.327" y1="261.017" x2="75.2012" y2="261.017" gradientUnits="userSpaceOnUse">
<stop stop-color="#0CCEF1"/>
<stop offset="0.29" stop-color="#32529A"/>
<stop offset="0.3" stop-color="#34509A"/>
<stop offset="0.5" stop-color="#4F43A0"/>
<stop offset="0.61" stop-color="#593FA3"/>
<stop offset="0.64" stop-color="#5D41A7"/>
<stop offset="0.87" stop-color="#8153C8"/>
<stop offset="1" stop-color="#8F5BD5"/>
</linearGradient>
<linearGradient id="paint8_linear_23_37081" x1="269.933" y1="352.431" x2="212.58" y2="352.431" gradientUnits="userSpaceOnUse">
<stop stop-color="#16D5F8"/>
<stop offset="0.29" stop-color="#32529A"/>
<stop offset="0.3" stop-color="#34509A"/>
<stop offset="0.5" stop-color="#4F43A0"/>
<stop offset="0.61" stop-color="#593FA3"/>
<stop offset="0.64" stop-color="#5D41A7"/>
<stop offset="0.87" stop-color="#8153C8"/>
<stop offset="1" stop-color="#8F5BD5"/>
</linearGradient>
<linearGradient id="paint9_linear_23_37081" x1="240.594" y1="298.728" x2="16.761" y2="298.728" gradientUnits="userSpaceOnUse">
<stop stop-color="#1ACAEB"/>
<stop offset="0.29" stop-color="#32529A"/>
<stop offset="0.3" stop-color="#34509A"/>
<stop offset="0.5" stop-color="#4F43A0"/>
<stop offset="0.61" stop-color="#593FA3"/>
<stop offset="0.64" stop-color="#5D41A7"/>
<stop offset="0.87" stop-color="#8153C8"/>
<stop offset="1" stop-color="#8F5BD5"/>
</linearGradient>
<linearGradient id="paint10_linear_23_37081" x1="16.746" y1="359.973" x2="16.4482" y2="359.973" gradientUnits="userSpaceOnUse">
<stop stop-color="#1DC8E8"/>
<stop offset="0.29" stop-color="#32529A"/>
<stop offset="0.3" stop-color="#34509A"/>
<stop offset="0.5" stop-color="#4F43A0"/>
<stop offset="0.61" stop-color="#593FA3"/>
<stop offset="0.64" stop-color="#5D41A7"/>
<stop offset="0.87" stop-color="#8153C8"/>
<stop offset="1" stop-color="#8F5BD5"/>
</linearGradient>
<linearGradient id="paint11_linear_23_37081" x1="463.385" y1="72.0005" x2="460.333" y2="72.0005" gradientUnits="userSpaceOnUse">
<stop stop-color="#0BD3F8"/>
<stop offset="0.29" stop-color="#32529A"/>
<stop offset="0.3" stop-color="#34509A"/>
<stop offset="0.5" stop-color="#4F43A0"/>
<stop offset="0.61" stop-color="#593FA3"/>
<stop offset="0.64" stop-color="#5D41A7"/>
<stop offset="0.87" stop-color="#8153C8"/>
<stop offset="1" stop-color="#8F5BD5"/>
</linearGradient>
<linearGradient id="paint12_linear_23_37081" x1="479.982" y1="242.288" x2="289.15" y2="242.288" gradientUnits="userSpaceOnUse">
<stop stop-color="#0DE1FF"/>
<stop offset="0.29" stop-color="#32529A"/>
<stop offset="0.5" stop-color="#4F43A0"/>
<stop offset="0.61" stop-color="#593FA3"/>
<stop offset="0.64" stop-color="#5D41A7"/>
<stop offset="0.87" stop-color="#8153C8"/>
<stop offset="1" stop-color="#8F5BD5"/>
</linearGradient>
<linearGradient id="paint13_linear_23_37081" x1="204.943" y1="293.224" x2="0.0148775" y2="293.224" gradientUnits="userSpaceOnUse">
<stop stop-color="#00D7FF"/>
<stop offset="0.29" stop-color="#32529A"/>
<stop offset="0.5" stop-color="#4F43A0"/>
<stop offset="0.61" stop-color="#593FA3"/>
<stop offset="0.64" stop-color="#5D41A7"/>
<stop offset="0.87" stop-color="#8153C8"/>
<stop offset="1" stop-color="#8F5BD5"/>
</linearGradient>
<linearGradient id="paint14_linear_23_37081" x1="411.36" y1="102.645" x2="316.093" y2="102.645" gradientUnits="userSpaceOnUse">
<stop stop-color="#23D8F9"/>
<stop offset="0.29" stop-color="#32529A"/>
<stop offset="0.3" stop-color="#34509A"/>
<stop offset="0.5" stop-color="#4F43A0"/>
<stop offset="0.61" stop-color="#593FA3"/>
<stop offset="0.64" stop-color="#5D41A7"/>
<stop offset="0.87" stop-color="#8153C8"/>
<stop offset="1" stop-color="#8F5BD5"/>
</linearGradient>
</defs>
</svg>
