<svg width="56" height="55" viewBox="0 0 56 55" fill="none" xmlns="http://www.w3.org/2000/svg">
<g clip-path="url(#clip0_23_49220)">
<path d="M54.25 20.625H1.75C0.784 20.625 0 19.855 0 18.9062V6.30208C0 2.82563 2.877 0 6.41667 0H49.5833C53.123 0 56 2.82563 56 6.30208V18.9062C56 19.855 55.216 20.625 54.25 20.625ZM3.5 17.1875H52.5V6.30208C52.5 4.72312 51.191 3.4375 49.5833 3.4375H6.41667C4.809 3.4375 3.5 4.72312 3.5 6.30208V17.1875Z" fill="white"/>
<path d="M54.25 37.8125H1.75C0.784 37.8125 0 37.0425 0 36.0938V18.9062C0 17.9575 0.784 17.1875 1.75 17.1875H54.25C55.216 17.1875 56 17.9575 56 18.9062V36.0938C56 37.0425 55.216 37.8125 54.25 37.8125ZM3.5 34.375H52.5V20.625H3.5V34.375Z" fill="white"/>
<path d="M49.5833 55H6.41667C2.877 55 0 52.1744 0 48.6979V36.0938C0 35.145 0.784 34.375 1.75 34.375H54.25C55.216 34.375 56 35.145 56 36.0938V48.6979C56 52.1744 53.123 55 49.5833 55ZM3.5 37.8125V48.6979C3.5 50.2769 4.809 51.5625 6.41667 51.5625H49.5833C51.191 51.5625 52.5 50.2769 52.5 48.6979V37.8125H3.5Z" fill="white"/>
<path d="M46.6668 48.125C47.9555 48.125 49.0002 47.0989 49.0002 45.8333C49.0002 44.5676 47.9555 43.5416 46.6668 43.5416C45.3782 43.5416 44.3335 44.5676 44.3335 45.8333C44.3335 47.0989 45.3782 48.125 46.6668 48.125Z" fill="white"/>
<path d="M37.3333 48.125C38.622 48.125 39.6667 47.0989 39.6667 45.8333C39.6667 44.5676 38.622 43.5416 37.3333 43.5416C36.0447 43.5416 35 44.5676 35 45.8333C35 47.0989 36.0447 48.125 37.3333 48.125Z" fill="white"/>
<path d="M27.9998 48.125C29.2885 48.125 30.3332 47.0989 30.3332 45.8333C30.3332 44.5676 29.2885 43.5416 27.9998 43.5416C26.7112 43.5416 25.6665 44.5676 25.6665 45.8333C25.6665 47.0989 26.7112 48.125 27.9998 48.125Z" fill="white"/>
<path d="M46.6668 29.7917C47.9555 29.7917 49.0002 28.7657 49.0002 27.5C49.0002 26.2344 47.9555 25.2084 46.6668 25.2084C45.3782 25.2084 44.3335 26.2344 44.3335 27.5C44.3335 28.7657 45.3782 29.7917 46.6668 29.7917Z" fill="white"/>
<path d="M37.3333 29.7917C38.622 29.7917 39.6667 28.7657 39.6667 27.5C39.6667 26.2344 38.622 25.2084 37.3333 25.2084C36.0447 25.2084 35 26.2344 35 27.5C35 28.7657 36.0447 29.7917 37.3333 29.7917Z" fill="white"/>
<path d="M27.9998 29.7917C29.2885 29.7917 30.3332 28.7657 30.3332 27.5C30.3332 26.2344 29.2885 25.2084 27.9998 25.2084C26.7112 25.2084 25.6665 26.2344 25.6665 27.5C25.6665 28.7657 26.7112 29.7917 27.9998 29.7917Z" fill="white"/>
<path d="M46.6668 13.75C47.9555 13.75 49.0002 12.7239 49.0002 11.4583C49.0002 10.1926 47.9555 9.16663 46.6668 9.16663C45.3782 9.16663 44.3335 10.1926 44.3335 11.4583C44.3335 12.7239 45.3782 13.75 46.6668 13.75Z" fill="white"/>
<path d="M37.3333 13.75C38.622 13.75 39.6667 12.7239 39.6667 11.4583C39.6667 10.1926 38.622 9.16663 37.3333 9.16663C36.0447 9.16663 35 10.1926 35 11.4583C35 12.7239 36.0447 13.75 37.3333 13.75Z" fill="white"/>
<path d="M27.9998 13.75C29.2885 13.75 30.3332 12.7239 30.3332 11.4583C30.3332 10.1926 29.2885 9.16663 27.9998 9.16663C26.7112 9.16663 25.6665 10.1926 25.6665 11.4583C25.6665 12.7239 26.7112 13.75 27.9998 13.75Z" fill="white"/>
</g>
<defs>
<clipPath id="clip0_23_49220">
<rect width="56" height="55" fill="white"/>
</clipPath>
</defs>
</svg>
