<svg width="66" height="66" viewBox="0 0 66 66" fill="none" xmlns="http://www.w3.org/2000/svg">
<path d="M33 35.3438C34.0878 35.3438 35.1512 35.0248 36.0556 34.4274C36.9601 33.8299 37.6651 32.9807 38.0813 31.9871C38.4976 30.9935 38.6065 29.9002 38.3943 28.8454C38.1821 27.7907 37.6583 26.8218 36.8891 26.0614C36.1199 25.3009 35.1399 24.783 34.073 24.5732C33.0061 24.3634 31.9002 24.4711 30.8952 24.8827C29.8902 25.2942 29.0313 25.9911 28.4269 26.8853C27.8226 27.7795 27.5 28.8308 27.5 29.9063C27.5 31.3484 28.0795 32.7314 29.1109 33.7511C30.1424 34.7709 31.5413 35.3438 33 35.3438ZM33 27.1875C33.5439 27.1875 34.0756 27.347 34.5278 27.6457C34.9801 27.9444 35.3325 28.369 35.5407 28.8658C35.7488 29.3626 35.8033 29.9093 35.6972 30.4367C35.591 30.964 35.3291 31.4485 34.9445 31.8287C34.56 32.2089 34.0699 32.4679 33.5365 32.5728C33.0031 32.6777 32.4501 32.6238 31.9476 32.4181C31.4451 32.2123 31.0156 31.8638 30.7135 31.4167C30.4113 30.9696 30.25 30.444 30.25 29.9063C30.25 29.1852 30.5397 28.4937 31.0555 27.9838C31.5712 27.4739 32.2707 27.1875 33 27.1875Z" fill="white"/>
<path d="M1.375 16.3125C1.73967 16.3125 2.08941 16.1693 2.34727 15.9143C2.60513 15.6594 2.75 15.3137 2.75 14.9531V2.71875H15.125C15.4897 2.71875 15.8394 2.57553 16.0973 2.3206C16.3551 2.06567 16.5 1.7199 16.5 1.35938C16.5 0.998846 16.3551 0.653084 16.0973 0.398152C15.8394 0.14322 15.4897 0 15.125 0H1.375C1.01033 0 0.660591 0.14322 0.402728 0.398152C0.144866 0.653084 0 0.998846 0 1.35938V14.9531C0 15.3137 0.144866 15.6594 0.402728 15.9143C0.660591 16.1693 1.01033 16.3125 1.375 16.3125Z" fill="white"/>
<path d="M50.875 2.71875H63.25V14.9531C63.25 15.3137 63.3949 15.6594 63.6527 15.9143C63.9106 16.1693 64.2603 16.3125 64.625 16.3125C64.9897 16.3125 65.3394 16.1693 65.5973 15.9143C65.8551 15.6594 66 15.3137 66 14.9531V1.35938C66 0.998846 65.8551 0.653084 65.5973 0.398152C65.3394 0.14322 64.9897 0 64.625 0H50.875C50.5103 0 50.1606 0.14322 49.9027 0.398152C49.6449 0.653084 49.5 0.998846 49.5 1.35938C49.5 1.7199 49.6449 2.06567 49.9027 2.3206C50.1606 2.57553 50.5103 2.71875 50.875 2.71875Z" fill="white"/>
<path d="M64.625 48.9375C64.2603 48.9375 63.9106 49.0807 63.6527 49.3357C63.3949 49.5906 63.25 49.9363 63.25 50.2969V62.5312H50.875C50.5103 62.5312 50.1606 62.6745 49.9027 62.9294C49.6449 63.1843 49.5 63.5301 49.5 63.8906C49.5 64.2512 49.6449 64.5969 49.9027 64.8518C50.1606 65.1068 50.5103 65.25 50.875 65.25H64.625C64.9897 65.25 65.3394 65.1068 65.5973 64.8518C65.8551 64.5969 66 64.2512 66 63.8906V50.2969C66 49.9363 65.8551 49.5906 65.5973 49.3357C65.3394 49.0807 64.9897 48.9375 64.625 48.9375Z" fill="white"/>
<path d="M15.125 62.5312H2.75V50.2969C2.75 49.9363 2.60513 49.5906 2.34727 49.3357C2.08941 49.0807 1.73967 48.9375 1.375 48.9375C1.01033 48.9375 0.660591 49.0807 0.402728 49.3357C0.144866 49.5906 0 49.9363 0 50.2969V63.8906C0 64.2512 0.144866 64.5969 0.402728 64.8518C0.660591 65.1068 1.01033 65.25 1.375 65.25H15.125C15.4897 65.25 15.8394 65.1068 16.0973 64.8518C16.3551 64.5969 16.5 64.2512 16.5 63.8906C16.5 63.5301 16.3551 63.1843 16.0973 62.9294C15.8394 62.6745 15.4897 62.5312 15.125 62.5312Z" fill="white"/>
<path d="M65.7527 33.3998C65.9123 33.1723 65.9979 32.9019 65.9979 32.625C65.9979 32.348 65.9123 32.0777 65.7527 31.8501C61.8727 26.9412 56.8981 22.9848 51.2168 20.2896C45.5355 17.5944 39.3012 16.2333 33.0002 16.3125C26.6992 16.2333 20.4649 17.5944 14.7836 20.2896C9.10228 22.9848 4.12763 26.9412 0.24768 31.8501C0.0880046 32.0777 0.00244141 32.348 0.00244141 32.625C0.00244141 32.9019 0.0880046 33.1723 0.24768 33.3998C4.12763 38.3088 9.10228 42.2652 14.7836 44.9603C20.4649 47.6555 26.6992 49.0166 33.0002 48.9375C39.3012 49.0166 45.5355 47.6555 51.2168 44.9603C56.8981 42.2652 61.8727 38.3088 65.7527 33.3998ZM33.0002 19.0312C35.1758 19.0312 37.3025 19.669 39.1114 20.864C40.9204 22.0589 42.3303 23.7574 43.1629 25.7445C43.9954 27.7317 44.2133 29.9183 43.7888 32.0278C43.3644 34.1374 42.3167 36.0751 40.7783 37.596C39.24 39.1169 37.28 40.1526 35.1462 40.5723C33.0124 40.9919 30.8006 40.7765 28.7907 39.9534C26.7807 39.1303 25.0627 37.7364 23.854 35.948C22.6453 34.1597 22.0002 32.0571 22.0002 29.9062C22.0002 27.022 23.1591 24.2559 25.222 22.2164C27.2849 20.177 30.0828 19.0312 33.0002 19.0312ZM33.0002 46.2187C27.3201 46.2341 21.7048 45.0261 16.5449 42.6785C11.385 40.3309 6.80428 36.9002 3.12143 32.625C8.40845 26.5155 15.4866 22.1829 23.3752 20.2275C21.4247 22.1176 20.0878 24.5392 19.5349 27.1834C18.982 29.8277 19.2381 32.5748 20.2707 35.0746C21.3032 37.5744 23.0654 39.7135 25.3325 41.2192C27.5996 42.725 30.269 43.5291 33.0002 43.5291C35.7314 43.5291 38.4007 42.725 40.6678 41.2192C42.9349 39.7135 44.6971 37.5744 45.7297 35.0746C46.7622 32.5748 47.0184 29.8277 46.4655 27.1834C45.9126 24.5392 44.5756 22.1176 42.6252 20.2275C50.5138 22.1829 57.5919 26.5155 62.8789 32.625C59.1961 36.9002 54.6154 40.3309 49.4555 42.6785C44.2955 45.0261 38.6802 46.2341 33.0002 46.2187Z" fill="white"/>
</svg>
