<svg width="65" height="65" viewBox="0 0 65 65" fill="none" xmlns="http://www.w3.org/2000/svg">
<g clip-path="url(#clip0_24_74131)">
<path d="M46.9981 53.5983L53.2058 47.3906L50.7515 43.9629C51.976 41.9777 52.8652 39.8337 53.4018 37.5728L57.5578 36.8858V28.1049L53.4018 27.418C52.8652 25.157 51.976 23.0131 50.7515 21.0279L53.2058 17.6002L46.9981 11.3925L43.5703 13.8468C42.8794 13.421 42.1601 13.031 41.4245 12.6836L40.6112 14.4055C41.9642 15.0446 42.7943 15.6041 43.6237 16.1508L46.7936 13.8811L50.7172 17.8047L48.4477 20.9743C50.1114 23.501 51.0407 25.3443 51.8108 29.0853L55.6534 29.7205V35.2704L51.8108 35.9056C51.2051 38.8473 50.5608 40.8071 48.4477 44.0166L50.7172 47.1862L46.7936 51.1098L43.624 48.8403C41.0973 50.5039 39.254 51.4333 35.513 52.2034L34.8778 56.046H29.3279L28.6929 52.2034C25.7676 51.6011 23.8051 50.9628 20.582 48.8403L17.4122 51.1098L13.4888 47.1862L15.7582 44.0166C14.1002 41.4984 13.1665 39.6541 12.3952 35.9056L8.55256 35.2704V29.7205L12.3952 29.0853C13.0025 26.1338 13.649 24.1778 15.7582 20.9743L13.4888 17.8047L17.4122 13.8811L20.582 16.1506C23.093 14.4971 24.9341 13.5613 28.6929 12.7875L29.3279 8.94488H34.8778L35.513 12.7871C36.5436 12.9999 37.4323 13.1718 38.7915 13.6557L39.4302 11.8617C38.7002 11.6018 37.946 11.379 37.1802 11.197L36.4932 7.04065H27.7124L27.0255 11.1966C24.7644 11.7332 22.6204 12.6224 20.6354 13.8469L17.2076 11.3926L10.9999 17.6003L13.4542 21.028C12.2297 23.0132 11.3405 25.1571 10.8039 27.4181L6.64795 28.1051V36.8859L10.8039 37.5729C11.3405 39.8339 12.2297 41.9778 13.4542 43.963L10.9999 47.3907L17.2076 53.5984L20.6354 51.1441C22.6204 52.3686 24.7644 53.2578 27.0255 53.7944L27.7124 57.9503H36.4933L37.1803 53.7944C39.4413 53.2578 41.5852 52.3686 43.5704 51.1441L46.9981 53.5983Z" fill="white"/>
<path d="M32.1027 46.9036C40.0475 46.9036 46.511 40.4401 46.511 32.4952C46.511 24.5504 40.0475 18.0869 32.1027 18.0869C24.1578 18.0869 17.6943 24.5504 17.6943 32.4952C17.6943 35.9918 18.9623 39.3636 21.2645 41.9896L22.6964 40.7341C20.6989 38.4556 19.5987 35.5296 19.5987 32.4951C19.5987 25.6003 25.208 19.9911 32.1027 19.9911C38.9973 19.9911 44.6066 25.6005 44.6066 32.4951C44.6066 39.3898 38.9973 44.9991 32.1027 44.9991C29.1122 44.9991 26.2186 43.9271 23.9546 41.9806L22.7131 43.4245C25.3223 45.6682 28.6569 46.9036 32.1027 46.9036Z" fill="white"/>
<path d="M29.6015 37.4418V27.4785H22.9248V37.4418H24.8292V33.8884H27.6971V37.4418H29.6015ZM24.829 31.9841V29.3829H27.697V31.984H24.829V31.9841Z" fill="white"/>
<path d="M33.04 33.8205H37.8124V27.4785H31.1357V37.4418H33.0401V33.8205H33.04ZM33.0401 29.3829H35.9081V31.916H33.0401V29.3829Z" fill="white"/>
<path d="M39.376 27.5488H41.2803V37.4418H39.376V27.5488Z" fill="white"/>
<path d="M57.3139 0C54.7964 0 52.748 2.04832 52.748 4.56588C52.748 6.7569 54.2997 8.59168 56.3616 9.03095V22.9863H55.3307V24.8907H58.266V9.03108C60.328 8.59193 61.8797 6.75702 61.8797 4.56588C61.8797 2.04832 59.8315 0 57.3139 0ZM57.3139 7.22727C55.8463 7.22727 54.6524 6.03337 54.6524 4.56588C54.6524 3.09825 55.8463 1.90435 57.3139 1.90435C58.7814 1.90435 59.9753 3.09825 59.9753 4.56588C59.9753 6.03324 58.7813 7.22727 57.3139 7.22727Z" fill="white"/>
<path d="M7.83382 9.13163C9.99754 9.13163 11.8133 7.61817 12.2814 5.59461H22.0629V9.47047H23.9672V3.69013H12.3144C11.9047 1.59026 10.0518 0 7.83382 0C5.31626 0 3.26807 2.04832 3.26807 4.56588C3.26807 7.08343 5.31613 9.13163 7.83382 9.13163ZM7.83382 1.90435C9.30131 1.90435 10.4952 3.09825 10.4952 4.56588C10.4952 6.03337 9.30131 7.22727 7.83382 7.22727C6.36632 7.22727 5.17242 6.03337 5.17242 4.56588C5.17229 3.09825 6.36619 1.90435 7.83382 1.90435Z" fill="white"/>
<path d="M55.8218 55.8685C53.5685 55.8685 51.6924 57.5097 51.3231 59.659H41.5928V55.7297H39.6885V61.5634H51.3975C51.9013 63.5366 53.6938 65 55.8218 65C58.3393 65 60.3875 62.9517 60.3875 60.4341C60.3875 57.9166 58.3393 55.8685 55.8218 55.8685ZM55.8218 63.0956C54.3542 63.0956 53.1602 61.9017 53.1602 60.4341C53.1602 58.9666 54.3542 57.7727 55.8218 57.7727C57.2893 57.7727 58.4832 58.9666 58.4832 60.4341C58.4832 61.9017 57.2893 63.0956 55.8218 63.0956Z" fill="white"/>
<path d="M8.63866 55.969V42.3941H9.02207V40.4897H6.73431V55.969C4.67227 56.4081 3.12061 58.243 3.12061 60.4342C3.12061 62.9517 5.1688 65 7.68635 65C10.2039 65 12.2521 62.9517 12.2521 60.4342C12.2521 58.2431 10.7006 56.4084 8.63866 55.969ZM7.68635 63.0956C6.21886 63.0956 5.02496 61.9017 5.02496 60.434C5.02496 58.9665 6.21886 57.7726 7.68635 57.7726C9.15385 57.7726 10.3478 58.9665 10.3478 60.434C10.3478 61.9017 9.15385 63.0956 7.68635 63.0956Z" fill="white"/>
<path d="M48.4154 32.4955C48.4151 29.9099 47.8113 27.375 46.6141 25.0493L48.3072 24.1777C49.633 26.7528 50.3195 29.5849 50.3199 32.4954L48.4154 32.4955ZM45.7041 23.4988C45.3736 23.0011 45.0117 22.5161 44.6281 22.057L46.0897 20.8361C46.5176 21.3485 46.9217 21.89 47.2905 22.4453L45.7041 23.4988ZM43.4011 20.7404C42.9691 20.3251 42.5104 19.9297 42.0381 19.5658L43.2004 18.0571C43.7275 18.4634 44.2393 18.9043 44.7211 19.3676L43.4011 20.7404Z" fill="white"/>
</g>
<defs>
<clipPath id="clip0_24_74131">
<rect width="65" height="65" fill="white"/>
</clipPath>
</defs>
</svg>
