<svg width="71" height="70" viewBox="0 0 71 70" fill="none" xmlns="http://www.w3.org/2000/svg">
<path d="M67.9014 43.9687L49.0753 62.5297C48.7109 62.8608 48.2796 63.1121 47.8097 63.2672C47.3398 63.4223 46.8419 63.4777 46.3488 63.4298C45.8556 63.3818 45.3783 63.2315 44.9482 62.9888C44.5181 62.7462 44.1449 62.4165 43.8532 62.0216L45.4222 60.4749C45.8626 61.09 46.82 61.6599 47.5066 60.9831L66.3327 42.4222C66.5367 42.2147 66.6509 41.9371 66.6509 41.6481C66.6509 41.3591 66.5367 41.0814 66.3327 40.874L34.0277 9.03437C33.4168 8.41804 31.8891 8.70964 31.0989 8.70964L28.8794 6.52214C30.8838 6.52214 34.0652 5.93807 35.6064 7.49787L67.9014 39.3269C68.518 39.9465 68.8634 40.7798 68.8634 41.6478C68.8634 42.5158 68.518 43.3492 67.9014 43.9687Z" fill="white"/>
<path d="M17.7329 17.4423C17.7329 16.577 17.4727 15.7311 16.9851 15.0116C16.4975 14.2922 15.8044 13.7314 14.9936 13.4003C14.1827 13.0692 13.2905 12.9825 12.4297 13.1513C11.5689 13.3201 10.7782 13.7368 10.1576 14.3487C9.53703 14.9605 9.1144 15.7401 8.94318 16.5887C8.77196 17.4374 8.85983 18.3171 9.1957 19.1165C9.53156 19.9159 10.1003 20.5992 10.8301 21.0799C11.5598 21.5607 12.4178 21.8173 13.2954 21.8173C14.4685 21.8052 15.5901 21.3403 16.4196 20.5225C17.2492 19.7046 17.7206 18.5988 17.7329 17.4423ZM13.2954 19.6298C10.4388 19.6298 10.4349 15.2548 13.2954 15.2548C16.1538 15.2548 16.1565 19.6298 13.2954 19.6298Z" fill="white"/>
<path d="M59.0265 39.3269L26.742 7.50776C26.4336 7.19623 26.0652 6.94855 25.6583 6.77926C25.2515 6.60996 24.8145 6.52245 24.373 6.52185H5.54688C4.6645 6.52281 3.81854 6.86881 3.19461 7.48396C2.57067 8.09911 2.21972 8.93315 2.21875 9.8031V28.364C2.22683 29.2322 2.5782 30.063 3.19811 30.6797L35.492 62.5297C36.1263 63.1264 36.9694 63.4594 37.8462 63.4594C38.7229 63.4594 39.566 63.1264 40.2003 62.5297L59.0265 43.9688C59.6431 43.3492 59.9885 42.5158 59.9885 41.6479C59.9885 40.7799 59.6431 39.9465 59.0265 39.3269ZM57.4577 42.4222L38.6317 60.9832C38.4197 61.1817 38.1385 61.2924 37.8462 61.2924C37.5539 61.2924 37.2727 61.1817 37.0608 60.9832L4.75656 29.1227C4.65503 29.0233 4.57454 28.9051 4.51977 28.7748C4.465 28.6445 4.43703 28.5048 4.4375 28.3638V9.8031C4.43788 9.51314 4.55488 9.23515 4.76285 9.03012C4.97082 8.82508 5.25277 8.70973 5.54688 8.70935H24.373C24.5183 8.70936 24.6622 8.73811 24.7961 8.79388C24.9299 8.84966 25.0511 8.93134 25.1524 9.03408L57.4574 40.874C57.6616 41.0814 57.7758 41.3591 57.7759 41.6481C57.776 41.9371 57.6618 42.2147 57.4577 42.4222Z" fill="white"/>
</svg>
