<svg width="62" height="62" viewBox="0 0 62 62" fill="none" xmlns="http://www.w3.org/2000/svg">
<path d="M24.6478 37.2873L7.88037 54.0547C12.1716 58.3459 18.0998 61 24.6478 61C37.744 61 48.3607 50.3834 48.3607 37.2873H24.6478Z" stroke="white" stroke-width="2" stroke-miterlimit="10" stroke-linecap="round" stroke-linejoin="round"/>
<path d="M50.6611 23.8771C47.086 15.3537 38.6745 9.36095 28.8599 9.33029L28.8589 9.32932V33.042H52.4756H52.4972C52.4972 31.3908 52.3285 29.7792 52.0072 28.2232" stroke="white" stroke-width="2" stroke-miterlimit="10" stroke-linecap="round" stroke-linejoin="round"/>
<path d="M24.7126 13.5408C11.6165 13.5408 1 24.1574 1 37.2537C1 43.8017 3.654 49.7298 7.94515 54.021L24.7126 37.2537V13.5408Z" stroke="white" stroke-width="2" stroke-miterlimit="10" stroke-linecap="round" stroke-linejoin="round"/>
<path d="M15.5269 15.3979L24.3489 24.22" stroke="white" stroke-width="2" stroke-miterlimit="10" stroke-linecap="round" stroke-linejoin="round"/>
<path d="M9.77783 19.0682L24.2604 33.5508" stroke="white" stroke-width="2" stroke-miterlimit="10" stroke-linecap="round" stroke-linejoin="round"/>
<path d="M5.76953 24.4794L21.4631 40.1729" stroke="white" stroke-width="2" stroke-miterlimit="10" stroke-linecap="round" stroke-linejoin="round"/>
<path d="M2.16064 30.2894L16.9524 45.0813" stroke="white" stroke-width="2" stroke-miterlimit="10" stroke-linecap="round" stroke-linejoin="round"/>
<path d="M1.16553 38.7136L12.0439 49.5918" stroke="white" stroke-width="2" stroke-miterlimit="10" stroke-linecap="round" stroke-linejoin="round"/>
<path d="M60.9999 56.5936C60.9999 59.0271 59.027 61 56.5934 61C54.1599 61 52.187 59.0271 52.187 56.5936C52.187 54.16 54.1599 52.1871 56.5934 52.1871C59.027 52.1871 60.9999 54.16 60.9999 56.5936Z" stroke="white" stroke-width="2" stroke-miterlimit="10" stroke-linecap="round" stroke-linejoin="round"/>
<path d="M57.4389 5.40643C57.4389 7.83999 55.466 9.81287 53.0324 9.81287C50.5989 9.81287 48.626 7.83999 48.626 5.40643C48.626 2.97287 50.5989 0.99999 53.0324 0.99999C55.466 0.99999 57.4389 2.97287 57.4389 5.40643Z" stroke="white" stroke-width="2" stroke-miterlimit="10" stroke-linecap="round" stroke-linejoin="round"/>
<path d="M14.4608 5.40643C14.4608 7.83999 12.4879 9.81287 10.0544 9.81287C7.62083 9.81287 5.64795 7.83999 5.64795 5.40643C5.64795 2.97287 7.62083 0.99999 10.0544 0.99999C12.4879 0.99999 14.4608 2.97287 14.4608 5.40643Z" stroke="white" stroke-width="2" stroke-miterlimit="10" stroke-linecap="round" stroke-linejoin="round"/>
<path d="M56.3521 48.0222V42.8311H47.9014" stroke="white" stroke-width="2" stroke-miterlimit="10" stroke-linecap="round" stroke-linejoin="round"/>
<path d="M10.0542 13.7365V18.324" stroke="white" stroke-width="2" stroke-miterlimit="10" stroke-linecap="round" stroke-linejoin="round"/>
<path d="M39.9336 12.0464V5.40655H44.2797" stroke="white" stroke-width="2" stroke-miterlimit="10" stroke-linecap="round" stroke-linejoin="round"/>
</svg>
