<svg width="55" height="66" viewBox="0 0 55 66" fill="none" xmlns="http://www.w3.org/2000/svg">
<path d="M54.6961 9.78507C54.6961 9.34726 54.3512 8.99702 53.92 8.99702C40.9847 7.68358 27.9631 0.153234 27.7907 0.0656716C27.7907 0.0656716 27.7907 0.0656716 27.7044 0.0656716H27.6182C27.4457 -0.0218906 27.187 -0.0218906 27.0145 0.0656716H26.9283C26.9283 0.0656716 26.9283 0.0656716 26.8421 0.0656716C26.7558 0.153234 13.7343 7.68358 0.798958 8.99702C0.36778 8.99702 0.0228381 9.34726 0.0228381 9.78507C0.0228381 10.1353 -1.78811 44.9851 26.8421 65.8249C27.0145 65.9124 27.187 66 27.3595 66C27.532 66 27.7044 65.9124 27.8769 65.8249C56.4208 44.9851 54.6961 10.1353 54.6961 9.78507ZM26.4971 55.405C8.56015 41.3075 7.78403 19.6796 7.87027 15.4766C15.8902 14.5134 23.5651 10.8358 26.4971 9.2597V55.405ZM6.92168 13.8129C6.4905 13.8129 6.14556 14.1632 6.14556 14.601C6.14556 14.8637 4.76579 41.4826 26.4971 57.5065V63.2856C2.26496 44.7224 1.66131 15.6517 1.66131 10.6607C12.4407 9.34726 22.8752 4.26866 26.4109 2.34229V7.24577H26.4971C24.5137 8.38408 15.7177 12.9373 6.92168 13.8129ZM28.2218 9.2597C31.1538 10.8358 38.8288 14.5134 46.8487 15.4766C46.8487 19.6796 46.1588 41.3075 28.2218 55.405V9.2597ZM28.2218 63.2856V57.5065C49.9532 41.395 48.5734 14.8637 48.5734 14.601C48.5734 14.1632 48.2285 13.8129 47.7973 13.8129C39.0013 12.9373 30.2053 8.38408 28.2218 7.24577V2.34229C31.7575 4.26866 42.192 9.34726 52.9714 10.6607C53.0577 15.6517 52.3678 44.7224 28.2218 63.2856Z" fill="white"/>
</svg>
